<?xml version="1.0" standalone="no"?><!DOCTYPE svg PUBLIC "-//W3C//DTD SVG 1.1//EN" "http://www.w3.org/Graphics/SVG/1.1/DTD/svg11.dtd"><svg t="1600504280830" class="icon" viewBox="0 0 1024 1024" version="1.1" xmlns="http://www.w3.org/2000/svg" p-id="1165" xmlns:xlink="http://www.w3.org/1999/xlink" width="200" height="200"><defs><style type="text/css"></style></defs><path d="M322.78 818.43c-30.35-0.18-54.91-24.74-55.09-55.09V529.61c0-178.97 145.09-324.06 324.06-324.06 154.44-0.69 295.84 86.5 364.56 224.82 9.32 20.34 0.38 44.38-19.96 53.7-19.43 8.89-42.43 1.17-52.55-17.65C829.13 356 716.58 286.15 593.37 286.16c-134.23 0-243.04 108.81-243.04 243.04v164.46l131.65-150.28c14.04-17.42 39.55-20.14 56.96-6.1 17.42 14.03 20.15 39.54 6.11 56.95-0.73 0.91-1.5 1.78-2.3 2.62L365.72 799.39a54.299 54.299 0 0 1-42.94 19.04z m-89.12-101.67c16.76-14.77 18.39-40.33 3.65-57.11L136.04 543.79c-14.04-17.42-39.55-20.14-56.96-6.1-17.42 14.03-20.15 39.54-6.11 56.95 0.73 0.91 1.5 1.78 2.3 2.62l101.27 115.85c14.78 16.77 40.33 18.4 57.12 3.65z" fill="#010101" p-id="1166"></path></svg>