<?xml version="1.0" standalone="no"?><!DOCTYPE svg PUBLIC "-//W3C//DTD SVG 1.1//EN" "http://www.w3.org/Graphics/SVG/1.1/DTD/svg11.dtd"><svg t="1630832274481" class="icon" viewBox="0 0 1024 1024" version="1.1" xmlns="http://www.w3.org/2000/svg" p-id="1831" xmlns:xlink="http://www.w3.org/1999/xlink" width="200" height="200"><defs><style type="text/css"></style></defs><path d="M273.066667 921.6c-10.24 0-17.066667-6.826667-17.066667-17.066667v-102.4c0-10.24 6.826667-17.066667 17.066667-17.066666s17.066667 6.826667 17.066666 17.066666v102.4c0 10.24-6.826667 17.066667-17.066666 17.066667zM873.813333 310.613333c-10.24 0-20.48-3.413333-30.72-6.826666l-341.333333-170.666667c-3.413333-3.413333-6.826667-6.826667-10.24-13.653333s0-10.24 3.413333-13.653334l102.4-102.4c10.24-3.413333 17.066667-3.413333 23.893334-3.413333l307.2 136.533333c6.826667 3.413333 10.24 10.24 10.24 17.066667v102.4c0 20.48-10.24 34.133333-27.306667 47.786667-10.24 3.413333-23.893333 6.826667-37.546667 6.826666z m-334.506666-194.56l320.853333 160.426667c10.24 3.413333 23.893333 3.413333 34.133333-3.413333 3.413333-3.413333 10.24-6.826667 10.24-17.066667V163.84l-286.72-126.293333-78.506666 78.506666z" fill="#2c2c2c" p-id="1832"></path><path d="M273.066667 1024c-85.333333 0-153.6-68.266667-153.6-153.6 0-64.853333 40.96-122.88 102.4-143.36h13.653333c3.413333 0 6.826667 6.826667 10.24 10.24l10.24 20.48c17.066667 30.72 51.2 27.306667 75.093333 13.653333l23.893334-13.653333c6.826667-3.413333 13.653333-3.413333 20.48 3.413333 30.72 30.72 51.2 68.266667 51.2 112.64 0 81.92-68.266667 150.186667-153.6 150.186667z m-54.613334-259.413333c-37.546667 20.48-64.853333 61.44-64.853333 105.813333C153.6 935.253333 208.213333 989.866667 273.066667 989.866667s119.466667-54.613333 119.466666-119.466667c0-30.72-10.24-58.026667-30.72-78.506667l-13.653333 6.826667c-44.373333 27.306667-98.986667 17.066667-126.293333-20.48 0-3.413333-3.413333-10.24-3.413334-13.653333z" fill="#2c2c2c" p-id="1833"></path><path d="M296.96 815.786667c-27.306667 0-54.613333-13.653333-71.68-37.546667-13.653333-20.48-20.48-44.373333-17.066667-68.266667l-102.4-170.666666c-23.893333-30.72-23.893333-64.853333 0-102.4l102.4-153.6c10.24-20.48 17.066667-34.133333 40.96-44.373334l290.133334-119.466666c3.413333-3.413333 10.24-3.413333 13.653333 0L843.093333 273.066667c6.826667 3.413333 10.24 13.653333 6.826667 23.893333 0 0-47.786667 95.573333-136.533333 238.933333-85.333333 139.946667-208.213333 174.08-228.693334 177.493334l-133.12 85.333333c-20.48 10.24-37.546667 17.066667-54.613333 17.066667zM358.4 375.466667c3.413333 0 10.24 3.413333 13.653333 6.826666 0 0 40.96 44.373333 105.813334 44.373334 6.826667 0 13.653333 3.413333 17.066666 10.24 3.413333 6.826667 0 13.653333-3.413333 17.066666-37.546667 37.546667-64.853333 95.573333-64.853333 105.813334 0 10.24-6.826667 17.066667-17.066667 17.066666-10.24 3.413333-81.92 40.96-143.36 81.92-10.24 6.826667-20.48 20.48-23.893333 34.133334-3.413333 20.48 0 44.373333 10.24 61.44 20.48 34.133333 54.613333 30.72 78.506666 17.066666l136.533334-85.333333c3.413333 0 3.413333-3.413333 6.826666-3.413333 0 0 126.293333-23.893333 211.626667-163.84 68.266667-112.64 112.64-191.146667 129.706667-221.866667L546.133333 157.013333 262.826667 273.066667c-13.653333 3.413333-17.066667 10.24-27.306667 23.893333l-102.4 157.013333c-17.066667 27.306667-17.066667 44.373333 0 64.853334l85.333333 143.36c6.826667-13.653333 17.066667-20.48 27.306667-27.306667 0 0 17.066667-10.24 40.96-23.893333-3.413333-17.066667-10.24-30.72-13.653333-30.72-10.24 0-17.066667-6.826667-17.066667-17.066667 0-37.546667-23.893333-54.613333-27.306667-54.613333-6.826667-3.413333-10.24-13.653333-6.826666-20.48 3.413333-6.826667 10.24-10.24 17.066666-10.24 17.066667-3.413333 98.986667-68.266667 102.4-85.333334 0-6.826667 3.413333-13.653333 10.24-17.066666h6.826667z m-68.266667 174.08c13.653333 6.826667 23.893333 27.306667 27.306667 40.96 27.306667-17.066667 58.026667-34.133333 75.093333-40.96 6.826667-23.893333 23.893333-61.44 47.786667-92.16-37.546667-6.826667-64.853333-23.893333-78.506667-37.546667-20.48 27.306667-61.44 61.44-95.573333 81.92 10.24 10.24 20.48 27.306667 23.893333 47.786667z" fill="#2c2c2c" p-id="1834"></path></svg>