<?xml version="1.0" standalone="no"?><!DOCTYPE svg PUBLIC "-//W3C//DTD SVG 1.1//EN" "http://www.w3.org/Graphics/SVG/1.1/DTD/svg11.dtd"><svg t="1584257596514" class="icon" viewBox="0 0 1024 1024" version="1.1" xmlns="http://www.w3.org/2000/svg" p-id="2792" xmlns:xlink="http://www.w3.org/1999/xlink" width="200" height="200"><defs><style type="text/css"></style></defs><path d="M660.3 519.3L559.8 619.8c-3.9 3.9-3.9 10.2 0 14.1 2 2 4.5 2.9 7.1 2.9s5.1-1 7.1-2.9l100.5-100.5c3.9-3.9 3.9-10.2 0-14.1-4-3.9-10.3-3.9-14.2 0z" fill="#010101" p-id="2793"></path><path d="M950 940H157.1L301 904.9c1.8-0.4 3.4-1.3 4.7-2.6l186.8-186.8c3.9-3.9 3.9-10.2 0-14.1-3.9-3.9-10.2-3.9-14.1 0L293.5 886.1 87.6 936.4l50.3-205.8 54.3-54.3 473-473c0.6-0.6 1.3-0.7 1.7-0.7 0.4 0 0.9 0.1 1.4 0.5l22.7 22.7 53.7 53.7 76.4 76.4c0.8 0.8 0.7 2.2-0.2 3l-117 117c-3.9 3.9-3.9 10.2 0 14.1 3.9 3.9 10.2 3.9 14.1 0l117-117c6.6-6.6 8.2-16.2 4.9-24.2 13.2-0.8 25.5-6.3 34.9-15.7l56.4-56.4c10.2-10.2 15.8-23.8 15.8-38.3s-5.6-28.1-15.8-38.3L823.9 92.7c-10.2-10.2-23.8-15.8-38.3-15.8s-28.1 5.6-38.3 15.8L691 149.2c-9.4 9.4-14.9 21.7-15.7 34.9-2.6-1.1-5.4-1.6-8.3-1.6h-0.3c-5.9 0.1-11.4 2.4-15.6 6.6l-473 473-56.3 56.3c-1.3 1.3-2.2 2.9-2.6 4.7L64.3 947.6v0.1c-0.1 0.3-0.1 0.7-0.2 1v0.1c0 0.4-0.1 0.7-0.1 1.1v0.4c0 0.3 0 0.6 0.1 0.9 0 0.1 0 0.2 0.1 0.3 0 0.3 0.1 0.6 0.2 0.9 0 0.1 0 0.2 0.1 0.3 0.2 0.8 0.5 1.5 0.9 2.2 0 0.1 0.1 0.2 0.2 0.3 0.2 0.3 0.3 0.5 0.5 0.7 0.1 0.1 0.1 0.2 0.2 0.3 0.2 0.3 0.5 0.6 0.8 0.9l0.1 0.1c0.2 0.2 0.4 0.4 0.6 0.5 0.1 0.1 0.2 0.1 0.2 0.2 0.2 0.1 0.4 0.3 0.5 0.4 0.1 0.1 0.2 0.1 0.2 0.1 0.2 0.1 0.4 0.3 0.6 0.4 0.1 0 0.1 0.1 0.2 0.1 0.2 0.1 0.5 0.2 0.7 0.3 0.1 0 0.1 0 0.2 0.1 0.3 0.1 0.5 0.2 0.8 0.3h0.2c0.3 0.1 0.5 0.1 0.8 0.2h0.3c0.2 0 0.4 0.1 0.7 0.1h877c5.5 0 10-4.5 10-10s-4.7-9.9-10.2-9.9zM705.1 163.3l56.4-56.4c6.4-6.4 15-9.9 24.1-9.9 9.1 0 17.7 3.5 24.1 9.9L917 214.2c6.4 6.4 9.9 15 9.9 24.1s-3.5 17.7-9.9 24.1l-56.4 56.4c-6.4 6.4-15 9.9-24.1 9.9-9.1 0-17.7-3.5-24.1-9.9l-53.7-53.7-53.7-53.7c-6.4-6.4-9.9-15-9.9-24.1 0.1-9 3.6-17.6 10-24z" fill="#010101" p-id="2794"></path><path d="M543 651.6m-10 0a10 10 0 1 0 20 0 10 10 0 1 0-20 0Z" fill="#010101" p-id="2795"></path></svg>