<?xml version="1.0" standalone="no"?><!DOCTYPE svg PUBLIC "-//W3C//DTD SVG 1.1//EN" "http://www.w3.org/Graphics/SVG/1.1/DTD/svg11.dtd"><svg t="1586668151620" class="icon" viewBox="0 0 1024 1024" version="1.1" xmlns="http://www.w3.org/2000/svg" p-id="3292" xmlns:xlink="http://www.w3.org/1999/xlink" width="200" height="200"><defs><style type="text/css"></style></defs><path d="M973.6704 516.97664c-1.72032 235.30496-184.59648 435.44576-420.08064 454.38976-236.288 19.00544-446.88896-152.38656-486.01088-383.81056C28.12928 354.2016 187.136 128.62976 413.48096 73.30816c229.44256-56.07424 467.44064 83.50208 539.0848 306.1248 14.336 44.54912 20.76672 90.84416 21.10464 137.54368 0.24064 33.00864 51.44064 33.02912 51.2 0-1.69984-232.576-162.41664-437.71392-388.77184-493.0304C409.10848-31.53408 168.92928 83.3024 64.36864 290.66752c-105.40032 209.0496-47.52384 470.04672 132.2752 618.1632 180.43392 148.64896 447.95392 151.72608 632.22272 8.26368 123.28448-95.98976 194.86208-244.16256 195.9936-400.12288 0.25088-33.024-50.94912-33.00864-51.18976 0.00512z" p-id="3293"></path><path d="M246.30784 503.10656l219.79136 216.86272c9.50784 9.38496 26.85952 10.46016 36.20352 0l322.19648-360.60672c21.91872-24.53504-14.16192-60.87168-36.1984-36.20352l-322.2016 360.60672h36.20352c-73.2672-72.28928-146.52928-144.56832-219.79136-216.86272-23.51104-23.19872-59.72992 12.98944-36.20352 36.20352z" p-id="3294"></path></svg>