<?xml version="1.0" standalone="no"?><!DOCTYPE svg PUBLIC "-//W3C//DTD SVG 1.1//EN" "http://www.w3.org/Graphics/SVG/1.1/DTD/svg11.dtd"><svg t="1584363704526" class="icon" viewBox="0 0 1024 1024" version="1.1" xmlns="http://www.w3.org/2000/svg" p-id="3039" data-spm-anchor-id="a313x.7781069.0.i10" xmlns:xlink="http://www.w3.org/1999/xlink" width="200" height="200"><defs><style type="text/css"></style></defs><path d="M192 536l171.2 171.2 27.2-11.2c0-35.2 28.8-62.4 62.4-62.4 35.2 0 62.4 28.8 62.4 62.4 0 35.2-27.2 62.4-62.4 62.4l-6.4 14.4-8-3.2c-1.6 4.8-3.2 8 3.2 16v1.6l62.4 62.4h22.4l92.8-92.8c4.8 12.8 14.4 24 24 32 16 14.4 38.4 24 62.4 24 52.8 0 94.4-43.2 94.4-94.4 0-9.6-1.6-19.2-4.8-27.2-8-25.6-27.2-48-51.2-59.2l92.8-92.8V512l-150.4-150.4h1.6c36.8-12.8 64-48 64-89.6 0-38.4-24-72-57.6-86.4-3.2-1.6-6.4-1.6-8-3.2-9.6-3.2-17.6-4.8-28.8-4.8-41.6 0-76.8 27.2-89.6 65.6l-41.6-41.6h-22.4l-110.4 110.4 9.6 27.2c30.4 4.8 52.8 30.4 52.8 60.8 0 35.2-28.8 62.4-62.4 62.4-30.4 0-57.6-22.4-60.8-52.8l-28.8-8-112 110.4c-6.4 6.4-6.4 17.6 0 24z m182.4 158.4z m78.4 78.4l14.4 6.4-14.4-6.4z m-49.6-448z m-11.2 155.2c43.2 0 78.4-35.2 78.4-78.4 0-33.6-20.8-60.8-49.6-72l92.8-92.8 52.8 52.8 27.2-12.8v-3.2c0-35.2 28.8-62.4 62.4-62.4s64 27.2 64 60.8c0 35.2-27.2 62.4-62.4 62.4h-3.2l-14.4 27.2 161.6 161.6-100.8 100.8 9.6 27.2c32 3.2 56 30.4 56 62.4 0 35.2-28.8 62.4-62.4 62.4-32 0-59.2-24-62.4-56l-27.2-9.6-100.8 100.8-41.6-41.6c33.6-8 59.2-40 59.2-75.2 0-43.2-35.2-78.4-78.4-78.4-36.8 0-67.2 25.6-75.2 59.2l-150.4-150.4L320 432c11.2 27.2 38.4 48 72 48z m-76.8-67.2z" fill="#383838" p-id="3040"></path></svg>