<?xml version="1.0" encoding="utf-8"?>
<!DOCTYPE svg PUBLIC "-//W3C//DTD SVG 1.1//EN" "http://www.w3.org/Graphics/SVG/1.1/DTD/svg11.dtd">
<svg version="1.1" xmlns="http://www.w3.org/2000/svg" xmlns:xlink="http://www.w3.org/1999/xlink" x="0px" y="0px" viewBox="0 0 1000 1000" enable-background="new 0 0 1000 1000" xml:space="preserve">
<metadata></metadata>
<g style="fill:#5a5a5a;"><path d="M569.5,219.8c0.6,0,1.2,0,1.7,0c67.1-0.2,115.2-57.5,115.2-118.1c0-23.4-6.7-46.1-21.4-63.4C650.4,21,627.6,9.9,598.9,10c-75.8,0.3-115.2,64.9-115.3,113.9C484,180.7,516.9,219.8,569.5,219.8z"/><path d="M686.8,802.2l-30-65.7l-8.6,7.8c-36.3,33.4-92.4,71.8-100.8,72.9c-0.4-1.2-0.9-3.9-0.9-7.9c0-7.1,1.5-18.4,5.3-33.9l79-321.5c6.9-30,10.6-76.2,10.6-98.3c0-20.3-3-37.2-10.7-50.1c-7.5-13.2-21.4-21.3-37.3-21c-55.8,0.7-177.6,75.8-278.9,169.5L309,459l28,76.1l9.6-7.1c27-21,81.8-61.1,94.3-65.6c-0.1,6.3-2,18.4-5.5,35.7l-72,310.2c-8.2,34-11.7,81.2-11.7,103c0,28.5,6.2,48.5,18.3,61.6c12,13,28.5,17.2,44.5,17.2c0.1,0,0.2,0,0.3,0c47.1-0.6,170.9-66,271.2-175.6l5.2-5.7L686.8,802.2z"/></g>
</svg>