<?xml version="1.0" standalone="no"?><!DOCTYPE svg PUBLIC "-//W3C//DTD SVG 1.1//EN" "http://www.w3.org/Graphics/SVG/1.1/DTD/svg11.dtd"><svg t="1593166347910" class="icon" viewBox="0 0 1024 1024" version="1.1" xmlns="http://www.w3.org/2000/svg" p-id="5706" xmlns:xlink="http://www.w3.org/1999/xlink" width="200" height="200"><defs><style type="text/css"></style></defs><path d="M128.253 368.468l367.986 194.266c4.457 2.426 9.46 3.709 14.467 3.709 5.002 0 10.003-1.283 14.439-3.695L895.318 364.87c9.986-5.398 16.44-16.05 16.44-27.136 0-11.3-6.475-21.964-16.474-27.157L527.333 116.335c-9.057-4.935-19.874-4.936-28.906-0.014L128.252 314.195c-9.986 5.402-16.438 16.054-16.438 27.137 0 11.087 6.453 21.739 16.439 27.136z m80.352-27.514l304.274-162.538 302.088 159.343-304.273 162.889-302.089-159.694z" p-id="5707"></path><path d="M866.139 480.159L510.747 670.648 157.12 484.086c-15.112-7.749-33.77-2.014-41.571 12.753-3.989 7.367-4.84 15.757-2.398 23.624 2.426 7.814 7.817 14.2 15.183 17.982l367.96 194.309c4.456 2.427 9.459 3.711 14.468 3.711 5.005 0 10.007-1.284 14.44-3.696L895.4 534.823c15.057-8.131 20.667-26.523 12.733-41.943-8.14-15.035-26.558-20.635-41.994-12.721z" p-id="5708"></path><path d="M865.94 656.332L510.523 846.724 156.87 659.899c-15.114-7.755-33.772-2.007-41.591 12.809-3.796 7.191-4.55 15.513-2.126 23.433 2.43 7.938 7.727 14.397 14.911 18.185l368.003 194.588c4.457 2.431 9.46 3.717 14.469 3.717 5.004 0 10.005-1.285 14.441-3.702l370.151-198.181c7.406-3.804 12.82-10.298 15.244-18.285 2.403-7.92 1.535-16.23-2.444-23.405-8.144-15.045-26.558-20.652-41.988-12.726z" p-id="5709"></path></svg>