<?xml version="1.0" standalone="no"?><!DOCTYPE svg PUBLIC "-//W3C//DTD SVG 1.1//EN" "http://www.w3.org/Graphics/SVG/1.1/DTD/svg11.dtd"><svg t="1584278893948" class="icon" viewBox="0 0 1024 1024" version="1.1" xmlns="http://www.w3.org/2000/svg" p-id="19583" xmlns:xlink="http://www.w3.org/1999/xlink" width="200" height="200"><defs><style type="text/css"></style></defs><path d="M910.222 455.111V512H682.667v-56.889h227.555z m-625.778 0V512H56.89v-56.889h227.555z m170.667 227.556H512v227.555h-56.889V682.667z m0-625.778H512v227.555h-56.889V56.89z m341.333 699.733l-39.822 39.822-159.289-159.288 39.823-39.823 159.288 159.29zM369.778 329.956l-39.822 39.822-159.29-159.29 39.823-39.821 159.289 159.289z m-39.822 267.377l39.822 39.823-159.29 159.288-39.821-39.822 159.289-159.289z m426.666-426.666l39.822 39.822-159.288 159.289-39.823-39.822 159.29-159.29z" fill="#73777A" p-id="19584"></path></svg>