<?xml version="1.0" standalone="no"?><!DOCTYPE svg PUBLIC "-//W3C//DTD SVG 1.1//EN" "http://www.w3.org/Graphics/SVG/1.1/DTD/svg11.dtd"><svg t="1584278766942" class="icon" viewBox="0 0 1024 1024" version="1.1" xmlns="http://www.w3.org/2000/svg" p-id="19164" xmlns:xlink="http://www.w3.org/1999/xlink" width="200" height="200"><defs><style type="text/css"></style></defs><path d="M834.7648 736.3584a5.632 5.632 0 1 0 11.264 0 5.632 5.632 0 0 0-11.264 0z m-124.16 128.1024a11.1616 11.1616 0 1 0 22.3744 0 11.1616 11.1616 0 0 0-22.3744 0z m-167.3216 65.8944a16.7936 16.7936 0 1 0 33.6384 0 16.7936 16.7936 0 0 0-33.6384 0zM363.1616 921.6a22.3744 22.3744 0 1 0 44.7488 0 22.3744 22.3744 0 0 0-44.7488 0z m-159.744-82.0224a28.0064 28.0064 0 1 0 55.9616 0 28.0064 28.0064 0 0 0-56.0128 0zM92.672 700.16a33.6384 33.6384 0 1 0 67.2256 0 33.6384 33.6384 0 0 0-67.2256 0zM51.2 528.9984a39.168 39.168 0 1 0 78.336 0 39.168 39.168 0 0 0-78.336 0z m34.1504-170.0864a44.8 44.8 0 1 0 89.6 0 44.8 44.8 0 0 0-89.6 0zM187.904 221.7984a50.432 50.432 0 1 0 100.864 0 50.432 50.432 0 0 0-100.864 0zM338.432 143.36a55.9616 55.9616 0 1 0 111.9232 0 55.9616 55.9616 0 0 0-111.9744 0z m169.0112-4.9152a61.5936 61.5936 0 1 0 123.2384 0 61.5936 61.5936 0 0 0-123.2384 0z m154.7776 69.632a67.1744 67.1744 0 1 0 134.3488 0 67.1744 67.1744 0 0 0-134.3488 0z m110.0288 130.816a72.8064 72.8064 0 1 0 145.5616 0 72.8064 72.8064 0 0 0-145.5616 0z m43.7248 169.472a78.3872 78.3872 0 1 0 156.8256 0 78.3872 78.3872 0 0 0-156.8256 0z" fill="" p-id="19165"></path></svg>