<!DOCTYPE svg PUBLIC "-//W3C//DTD SVG 1.1//EN" "http://www.w3.org/Graphics/SVG/1.1/DTD/svg11.dtd">
<svg version="1.1" xmlns="http://www.w3.org/2000/svg" xmlns:xlink="http://www.w3.org/1999/xlink" class="nav_menu" x="0px" y="0px" width="20px" height="30px" viewBox="0 0 20 20" focusable="false"><path class="nav_menu" fill="#000000" d="M10,6c1.104,0,2-0.896,2-2s-0.896-2-2-2S8,2.895,8,4S8.896,6,10,6z M10,8c-1.104,0-2,0.896-2,2s0.896,2,2,2s2-0.896,2-2  S11.104,8,10,8z M10,14c-1.104,0-2,0.896-2,2s0.896,2,2,2s2-0.896,2-2S11.104,14,10,14z"></path></svg>