<?xml version="1.0" standalone="no"?><!DOCTYPE svg PUBLIC "-//W3C//DTD SVG 1.1//EN" "http://www.w3.org/Graphics/SVG/1.1/DTD/svg11.dtd"><svg t="1591450479779" class="icon" viewBox="0 0 1024 1024" version="1.1" xmlns="http://www.w3.org/2000/svg" p-id="7087" xmlns:xlink="http://www.w3.org/1999/xlink" width="200" height="200"><defs><style type="text/css"></style></defs><path d="M510.583233 336.595085c39.638789 0 71.828932-32.160467 71.828932-71.830979s-32.190143-71.829955-71.828932-71.829955c-39.702234 0-71.830979 32.159444-71.830979 71.829955S470.880999 336.595085 510.583233 336.595085M510.583233 408.42504c-39.702234 0-71.830979 32.160467-71.830979 71.830979 0 39.669488 32.128745 71.797209 71.830979 71.797209 39.638789 0 71.828932-32.127721 71.828932-71.797209C582.412165 440.585507 550.222021 408.42504 510.583233 408.42504M510.583233 623.88523c-39.702234 0-71.830979 32.191166-71.830979 71.828932 0 39.703257 32.128745 71.830979 71.830979 71.830979 39.638789 0 71.828932-32.127721 71.828932-71.830979C582.412165 656.076396 550.222021 623.88523 510.583233 623.88523" p-id="7088"></path></svg>