<?xml version="1.0" standalone="no"?><!DOCTYPE svg PUBLIC "-//W3C//DTD SVG 1.1//EN" "http://www.w3.org/Graphics/SVG/1.1/DTD/svg11.dtd"><svg t="1584257778537" class="icon" viewBox="0 0 1024 1024" version="1.1" xmlns="http://www.w3.org/2000/svg" p-id="3671" xmlns:xlink="http://www.w3.org/1999/xlink" width="200" height="200"><defs><style type="text/css"></style></defs><path d="M856.6 344.7h-554c-16.6 0-30-13.4-30-30s13.4-30 30-30h554c16.6 0 30 13.4 30 30s-13.5 30-30 30z" p-id="3672"></path><path d="M174.3 318.4m-34.6 0a34.6 34.6 0 1 0 69.2 0 34.6 34.6 0 1 0-69.2 0Z" p-id="3673"></path><path d="M856.6 549.7h-554c-16.6 0-30-13.4-30-30s13.4-30 30-30h554c16.6 0 30 13.4 30 30s-13.5 30-30 30z" p-id="3674"></path><path d="M174.3 522.6m-34.6 0a34.6 34.6 0 1 0 69.2 0 34.6 34.6 0 1 0-69.2 0Z" p-id="3675"></path><path d="M856.6 752.7h-554c-16.6 0-30-13.4-30-30s13.4-30 30-30h554c16.6 0 30 13.4 30 30s-13.5 30-30 30z" p-id="3676"></path><path d="M174.3 724.7m-34.6 0a34.6 34.6 0 1 0 69.2 0 34.6 34.6 0 1 0-69.2 0Z" p-id="3677"></path></svg>