<?xml version="1.0" standalone="no"?><!DOCTYPE svg PUBLIC "-//W3C//DTD SVG 1.1//EN" "http://www.w3.org/Graphics/SVG/1.1/DTD/svg11.dtd"><svg t="1586086373204" class="icon" viewBox="0 0 1024 1024" version="1.1" xmlns="http://www.w3.org/2000/svg" p-id="9065" xmlns:xlink="http://www.w3.org/1999/xlink" width="200" height="200"><defs><style type="text/css"></style></defs><path d="M367.104 473.088H151.552c-56.832 0-103.424-46.592-103.424-103.424v-215.04C48.64 97.792 94.72 51.2 151.552 51.2h215.552c56.832 0 103.424 46.592 103.424 103.424v215.552c0 56.832-46.592 102.912-103.424 102.912zM151.552 104.96c-27.136 0-49.664 22.016-49.664 49.664v215.552c0 27.136 22.016 49.664 49.664 49.664h215.552c27.136 0 49.664-22.016 49.664-49.664V154.624c0-27.136-22.016-49.664-49.664-49.664H151.552zM874.496 473.088h-215.552c-56.832 0-103.424-46.592-103.424-103.424v-215.04c0-56.832 46.592-103.424 103.424-103.424h215.552c56.832 0 103.424 46.592 103.424 103.424v215.552c0 56.832-46.592 102.912-103.424 102.912z m-215.552-368.128c-27.136 0-49.664 22.016-49.664 49.664v215.552c0 27.136 22.016 49.664 49.664 49.664h215.552c27.136 0 49.664-22.016 49.664-49.664V154.624c0-27.136-22.016-49.664-49.664-49.664h-215.552zM367.104 975.36H151.552c-56.832 0-103.424-46.592-103.424-103.424v-215.552c0-56.832 46.592-103.424 103.424-103.424h215.552c56.832 0 103.424 46.592 103.424 103.424v215.552c0 57.344-46.592 103.424-103.424 103.424z m-215.552-368.128c-27.136 0-49.664 22.016-49.664 49.664v215.552c0 27.136 22.016 49.664 49.664 49.664h215.552c27.136 0 49.664-22.016 49.664-49.664v-215.552c0-27.136-22.016-49.664-49.664-49.664H151.552zM766.976 975.36c-116.224 0-210.944-94.72-210.944-210.944s94.72-210.944 210.944-210.944 210.944 94.72 210.944 210.944-94.72 210.944-210.944 210.944z m0-368.128c-86.528 0-157.184 70.656-157.184 157.184s70.656 157.184 157.184 157.184 157.184-70.656 157.184-157.184-70.656-157.184-157.184-157.184z" p-id="9066" fill="#010101"></path></svg>