<?xml version="1.0" standalone="no"?><!DOCTYPE svg PUBLIC "-//W3C//DTD SVG 1.1//EN" "http://www.w3.org/Graphics/SVG/1.1/DTD/svg11.dtd"><svg t="1584277499763" class="icon" viewBox="0 0 1024 1024" version="1.1" xmlns="http://www.w3.org/2000/svg" p-id="16643" xmlns:xlink="http://www.w3.org/1999/xlink" width="200" height="200"><defs><style type="text/css"></style></defs><path d="M757.938 202H567c-24.852 0-45-20.148-45-45S542.148 112 567 112h300c24.852 0 45 20.148 45 45v300c0 24.852-20.148 45-45 45S822 481.852 822 457v-191.78L540.73 544.91c-17.622 17.524-46.116 17.444-63.64-0.18-17.524-17.622-17.444-46.116 0.18-63.64L757.938 202zM867 652c24.852 0 45 20.148 45 45V762c0 82.842-67.158 150-150 150H262c-82.842 0-150-67.158-150-150V262c0-82.842 67.158-150 150-150h65c24.852 0 45 20.148 45 45S351.852 202 327 202H262c-33.138 0-60 26.862-60 60v500c0 33.138 26.862 60 60 60h500c33.138 0 60-26.862 60-60v-65c0-24.852 20.148-45 45-45z" p-id="16644"></path></svg>