<?xml version="1.0" standalone="no"?><!DOCTYPE svg PUBLIC "-//W3C//DTD SVG 1.1//EN" "http://www.w3.org/Graphics/SVG/1.1/DTD/svg11.dtd"><svg t="1584257051938" class="icon" viewBox="0 0 1024 1024" version="1.1" xmlns="http://www.w3.org/2000/svg" p-id="2117" xmlns:xlink="http://www.w3.org/1999/xlink" width="200" height="200"><defs><style type="text/css"></style></defs><path d="M516.493312 351.043584c43.292672 0 83.494912 17.770496 112.105472 46.381056l0 0c28.612608 29.411328 46.405632 68.839424 46.405632 112.930816 0 43.290624-17.793024 83.492864-46.405632 112.105472-28.612608 28.614656-68.814848 46.405632-112.105472 46.405632-44.091392 0-83.519488-17.793024-112.930816-46.405632l0 0c-28.61056-28.612608-46.381056-68.814848-46.381056-112.105472 0-44.091392 17.770496-83.519488 46.381056-112.930816l0 0 0 0C432.975872 368.812032 472.403968 351.043584 516.493312 351.043584L516.493312 351.043584zM599.988224 426.835968c-21.633024-21.659648-51.017728-34.791424-83.494912-34.791424-33.275904 0-62.631936 13.131776-83.519488 34.791424l0 0c-21.659648 20.887552-34.791424 50.245632-34.791424 83.519488 0 32.475136 13.131776 61.861888 34.791424 83.492864l0 0c20.887552 20.885504 50.243584 34.045952 83.519488 34.045952 32.475136 0 61.85984-13.160448 83.494912-34.045952 20.885504-21.633024 34.043904-51.017728 34.043904-83.492864C634.032128 477.0816 620.873728 447.72352 599.988224 426.835968L599.988224 426.835968z" p-id="2118"></path><path d="M775.524352 162.347008l44.86144 44.863488 48.728064 47.95392c7.725056 8.4992 7.725056 20.885504 0 29.35808-0.774144 0-0.774144 0.79872-1.54624 0.79872l-2.318336 2.316288 0 0-1.54624 1.54624c-16.252928 15.478784-23.975936 36.337664-23.975936 56.451072 0 20.885504 7.723008 40.972288 23.975936 57.225216 7.727104 7.723008 17.770496 13.90592 27.815936 17.795072 10.067968 3.835904 21.653504 6.178816 32.499712 5.380096 11.589632-0.745472 20.85888 7.75168 21.633024 19.339264 0 0.800768 0 1.54624 0 2.347008l0 62.631936 0 68.8128c0 11.589632-9.269248 20.887552-20.086784 20.887552l-1.54624-0.772096 0 0.772096-3.090432-0.772096-3.117056 0c-22.403072 0-42.520576 9.2672-56.449024 23.945216-14.680064 13.934592-23.95136 34.048-23.95136 56.451072 0 11.618304 3.09248 22.433792 6.95296 32.477184 4.636672 10.070016 11.589632 19.339264 20.113408 27.066368 8.497152 7.75168 8.497152 20.11136 1.548288 28.614656-0.774144 0.770048-1.548288 1.544192-1.548288 1.544192l-44.86144 44.86144-48.728064 48.728064c-7.723008 7.725056-20.85888 7.725056-28.61056 0-0.774144-0.774144-0.774144-0.774144-1.548288-1.54624l-1.542144-2.318336-0.772096 0-1.54624-1.54624c-15.45216-16.252928-36.337664-23.975936-56.45312-23.975936-20.885504 0-40.974336 7.723008-56.451072 23.975936-8.495104 7.727104-14.678016 17.770496-18.538496 27.815936-3.8912 10.067968-5.435392 21.653504-5.435392 32.499712 0.770048 11.589632-7.727104 20.85888-19.316736 21.633024-0.772096 0-0.772096 0-1.54624 0l-63.404032 0-68.839424 0c-10.815488 0-20.088832-9.269248-20.088832-20.086784l0-1.54624 0 0 0-3.090432 0-3.117056c0-22.403072-9.29792-42.520576-23.230464-56.449024-14.680064-14.680064-34.793472-23.95136-56.424448-23.95136-12.388352 0-23.20384 3.09248-33.247232 6.95296-10.072064 4.636672-19.341312 11.59168-27.068416 20.113408-6.977536 8.497152-20.113408 8.497152-28.61056 1.548288-0.79872-0.774144-0.79872-1.548288-1.544192-1.548288l-44.863488-44.86144-47.95392-48.728064c-8.4992-7.723008-8.4992-20.85888 0-28.61056l0.79872-1.54624 2.291712-1.544192 0.800768-0.772096 1.544192-1.54624c15.45216-15.45216 23.177216-36.337664 23.177216-56.45312 0-20.885504-7.725056-40.972288-23.177216-56.451072-8.523776-8.495104-17.795072-14.678016-27.865088-18.538496-10.817536-3.8912-22.407168-5.435392-33.24928-5.435392-11.587584 0.772096-20.885504-7.727104-21.633024-19.316736 0-0.772096 0-0.772096 0-1.54624l0-63.404032 0-68.839424c0-10.815488 9.271296-20.086784 20.887552-20.086784l1.544192 0 0 0 3.090432 0 2.289664 0c22.431744 0 42.5472-9.299968 57.225216-23.232512 13.934592-14.680064 23.230464-34.793472 23.230464-56.424448 0-12.388352-2.34496-23.20384-6.981632-33.247232-4.634624-10.070016-11.614208-19.341312-19.339264-27.066368-8.4992-6.979584-9.271296-20.115456-1.54624-28.612608 0-0.79872 0.800768-0.79872 1.54624-1.544192l44.863488-44.863488 47.95392-47.95392c8.4992-8.4992 20.885504-8.4992 29.35808 0l0.79872 0.79872 2.316288 2.291712 0 0.800768 1.54624 1.54624c15.478784 15.450112 36.337664 23.177216 56.451072 23.177216 20.885504 0 40.972288-7.725056 57.225216-23.177216 7.723008-8.525824 13.90592-17.79712 17.793024-27.867136 3.837952-10.815488 6.180864-22.403072 5.382144-33.247232-0.745472-11.587584 7.75168-20.887552 19.339264-21.633024 0.800768 0 1.54624 0 2.347008 0l62.631936 0 68.814848 0c11.589632 0 20.885504 9.271296 20.885504 20.887552l-0.770048 1.544192 0.770048 0-0.770048 3.090432 0 2.291712c0 22.429696 9.2672 42.545152 23.945216 57.223168 13.934592 13.934592 34.048 23.230464 56.451072 23.230464 11.618304 0 22.433792-2.34496 32.475136-6.981632 10.072064-4.634624 19.341312-11.587584 27.068416-19.339264 7.75168-8.4992 20.11136-9.271296 28.612608-1.54624C774.750208 160.800768 775.524352 161.599488 775.524352 162.347008L775.524352 162.347008zM791.773184 235.821056l-31.70304-31.70304c-7.723008 6.180864-16.248832 10.815488-25.520128 14.706688-14.680064 6.926336-31.700992 10.815488-48.728064 10.815488-33.245184 0-63.401984-13.907968-85.833728-35.592192l0 0c-18.542592-19.31264-31.70304-44.06272-34.793472-72.675328l-48.699392 0-44.091392 0c-1.542144 9.269248-3.86048 19.341312-6.950912 27.840512-6.207488 15.478784-15.480832 30.158848-27.840512 42.543104-23.20384 23.977984-54.908928 35.538944-85.837824 35.538944-26.294272 0-53.362688-9.269248-75.794432-27.039744l-34.019328 34.793472-31.70304 30.928896c6.180864 7.727104 10.815488 16.25088 14.706688 25.522176 6.924288 14.70464 10.815488 31.700992 10.815488 49.498112 0 33.247232-13.907968 63.40608-35.592192 85.037056l0 0c-19.314688 19.339264-44.06272 31.700992-72.675328 34.818048l0 48.726016 0 44.838912c9.269248 0.774144 19.341312 3.088384 27.840512 6.950912 15.478784 5.410816 30.158848 14.708736 42.543104 27.070464 23.977984 23.973888 35.538944 54.90688 35.538944 85.833728 0 27.068416-9.269248 53.364736-27.039744 75.79648l34.793472 34.789376 30.928896 30.932992c7.727104-5.40672 16.25088-10.815488 25.522176-14.680064 14.70464-6.979584 31.700992-10.842112 49.498112-10.842112 33.247232 0 63.404032 13.934592 85.037056 35.56352l0 0c19.339264 19.341312 31.700992 44.865536 34.818048 72.704l48.726016 0 44.838912 0c0.772096-9.269248 3.088384-18.567168 6.950912-27.838464 5.408768-15.478784 14.708736-30.158848 27.070464-42.522624 23.973888-23.201792 54.90688-35.588096 85.833728-35.588096 27.068416 0 53.364736 9.293824 75.79648 27.066368l34.789376-34.021376 30.932992-31.70304c-5.410816-7.723008-10.815488-16.248832-14.680064-25.520128-6.979584-14.680064-10.842112-31.700992-10.842112-48.728064 0-33.245184 13.934592-63.401984 35.56352-85.833728l0 0c19.341312-18.542592 44.865536-31.70304 72.704-34.793472l0-48.699392 0-44.091392c-9.269248-1.542144-18.567168-3.86048-27.838464-6.950912-15.478784-6.207488-30.158848-15.478784-42.545152-27.840512-23.177216-23.20384-35.56352-54.90688-35.56352-85.837824 0-26.294272 9.293824-53.362688 27.066368-75.792384L791.773184 235.821056zM164.64896 734.590976 164.64896 734.590976M291.459072 158.509056 291.459072 158.509056" p-id="2119"></path></svg>