<?xml version="1.0" standalone="no"?><!DOCTYPE svg PUBLIC "-//W3C//DTD SVG 1.1//EN" "http://www.w3.org/Graphics/SVG/1.1/DTD/svg11.dtd"><svg t="1584277202779" class="icon" viewBox="0 0 1024 1024" version="1.1" xmlns="http://www.w3.org/2000/svg" p-id="8505" xmlns:xlink="http://www.w3.org/1999/xlink" width="200" height="200"><defs><style type="text/css"></style></defs><path d="M554.666667 896c-25.6 0-42.666667-17.066667-42.666667-42.666667 0-187.733333-153.6-341.333333-341.333333-341.333333-25.6 0-42.666667-17.066667-42.666667-42.666667s17.066667-42.666667 42.666667-42.666666c234.666667 0 426.666667 192 426.666666 426.666666 0 25.6-17.066667 42.666667-42.666666 42.666667z" p-id="8506"></path><path d="M853.333333 896c-25.6 0-42.666667-17.066667-42.666666-42.666667 0-354.133333-285.866667-640-640-640-25.6 0-42.666667-17.066667-42.666667-42.666666s17.066667-42.666667 42.666667-42.666667c401.066667 0 725.333333 324.266667 725.333333 725.333333 0 25.6-17.066667 42.666667-42.666667 42.666667z" p-id="8507"></path><path d="M213.333333 810.666667m-85.333333 0a85.333333 85.333333 0 1 0 170.666667 0 85.333333 85.333333 0 1 0-170.666667 0Z" p-id="8508"></path></svg>