<?xml version="1.0" standalone="no"?><!DOCTYPE svg PUBLIC "-//W3C//DTD SVG 1.1//EN" "http://www.w3.org/Graphics/SVG/1.1/DTD/svg11.dtd"><svg t="1584277432998" class="icon" viewBox="0 0 1024 1024" version="1.1" xmlns="http://www.w3.org/2000/svg" p-id="14522" xmlns:xlink="http://www.w3.org/1999/xlink" width="200" height="200"><defs><style type="text/css"></style></defs><path d="M834.121143 0H10.44898v1024h1003.10204V179.429878L834.121143 0zM741.877551 41.795918v292.571429h-501.55102V41.795918h501.55102z m-543.346939 940.408164V585.142857h606.040817v397.061225h-606.040817z m773.22449 0h-125.387755V543.346939h-689.632653v438.857143h-104.489796V41.795918h146.285714v334.367347h585.142857V41.795918h33.144164L971.755102 196.733388V982.204082z" fill="" p-id="14523"></path><path d="M282.122449 689.632653h146.285714a20.897959 20.897959 0 1 0 0-41.795918h-146.285714a20.897959 20.897959 0 1 0 0 41.795918zM491.102041 731.428571h-208.979592a20.897959 20.897959 0 1 0 0 41.795919h208.979592a20.897959 20.897959 0 1 0 0-41.795919zM538.958367 737.48898c-3.782531 3.949714-6.060408 9.404082-6.060408 14.837551s2.277878 10.866939 6.060408 14.837551c3.949714 3.761633 9.174204 6.060408 14.837551 6.060408 5.433469 0 10.866939-2.298776 14.837551-6.060408 3.761633-3.970612 6.060408-9.404082 6.060409-14.837551s-2.298776-10.887837-6.060409-14.837551c-7.732245-7.732245-21.942857-7.732245-29.675102 0zM700.081633 83.591837h-125.387755v208.979592h125.387755V83.591837z m-41.795919 167.183673h-41.795918V125.387755h41.795918v125.387755z" fill="" p-id="14524"></path></svg>