<?xml version="1.0" standalone="no"?><!DOCTYPE svg PUBLIC "-//W3C//DTD SVG 1.1//EN" "http://www.w3.org/Graphics/SVG/1.1/DTD/svg11.dtd"><svg t="1584277559348" class="icon" viewBox="0 0 1024 1024" version="1.1" xmlns="http://www.w3.org/2000/svg" p-id="17976" xmlns:xlink="http://www.w3.org/1999/xlink" width="200" height="200"><defs><style type="text/css"></style></defs><path d="M969.728 404.48c-2.048-7.168-9.216-13.312-16.384-14.336L660.48 348.16 530.432 82.944c-3.072-7.168-10.24-11.264-18.432-11.264s-15.36 4.096-18.432 11.264L363.52 348.16 70.656 390.144c-8.192 1.024-14.336 6.144-16.384 14.336s0 15.36 5.12 20.48l210.944 206.848-50.176 290.816c-1.024 8.192 2.048 15.36 8.192 20.48 6.144 4.096 14.336 5.12 21.504 2.048L512 806.912l261.12 137.216c3.072 2.048 6.144 2.048 9.216 2.048 4.096 0 8.192-1.024 12.288-4.096 6.144-4.096 9.216-12.288 8.192-20.48l-49.152-290.816 210.944-206.848c5.12-4.096 7.168-12.288 5.12-19.456zM716.8 610.304c-5.12 5.12-7.168 11.264-6.144 18.432l44.032 260.096-233.472-122.88c-3.072-2.048-6.144-2.048-9.216-2.048-3.072 0-6.144 1.024-9.216 2.048l-234.496 122.88 45.056-260.096c1.024-6.144-1.024-13.312-6.144-18.432L117.76 424.96l262.144-37.888c7.168-1.024 12.288-5.12 15.36-11.264L512 138.24l116.736 237.568c3.072 6.144 9.216 10.24 15.36 11.264l262.144 37.888L716.8 610.304z" p-id="17977"></path></svg>