<?xml version="1.0" standalone="no"?><!DOCTYPE svg PUBLIC "-//W3C//DTD SVG 1.1//EN" "http://www.w3.org/Graphics/SVG/1.1/DTD/svg11.dtd"><svg t="1584256987695" class="icon" viewBox="0 0 1024 1024" version="1.1" xmlns="http://www.w3.org/2000/svg" p-id="1326" xmlns:xlink="http://www.w3.org/1999/xlink" width="200" height="200"><defs><style type="text/css"></style></defs><path d="M844.8 326.4c-19.2 0-38.4 19.2-38.4 38.4v550.4c0 19.2-19.2 38.4-38.4 38.4H256c-19.2 0-38.4-19.2-38.4-38.4V364.8c0-19.2-12.8-38.4-38.4-38.4-19.2 0-38.4 19.2-38.4 38.4v550.4c6.4 57.6 51.2 108.8 115.2 108.8h512c64 0 115.2-51.2 115.2-115.2V364.8c0-19.2-19.2-38.4-38.4-38.4z m-409.6 435.2V364.8c0-19.2-12.8-38.4-38.4-38.4-19.2 0-38.4 19.2-38.4 38.4V768c0 19.2 12.8 38.4 38.4 38.4 25.6-6.4 38.4-19.2 38.4-44.8z m224 0V364.8c0-19.2-19.2-38.4-38.4-38.4s-38.4 19.2-38.4 38.4V768c0 19.2 19.2 38.4 38.4 38.4 19.2-6.4 38.4-19.2 38.4-44.8z m326.4-582.4h-179.2V108.8c0-57.6-51.2-108.8-108.8-108.8H326.4c-64 0-108.8 44.8-108.8 108.8v76.8H38.4c-19.2-6.4-38.4 12.8-38.4 32s19.2 32 38.4 32h947.2c19.2 0 38.4-12.8 38.4-32s-19.2-38.4-38.4-38.4z m-256 0H288V108.8c0-19.2 19.2-38.4 38.4-38.4h371.2c19.2 0 32 12.8 32 38.4v70.4z m0 0" fill="#383838" p-id="1327"></path></svg>