<svg version="1.0" xmlns="http://www.w3.org/2000/svg" width="128.000000pt" height="128.000000pt" viewBox="0 0 128.000000 128.000000" preserveAspectRatio="xMidYMid meet">
	<g transform="translate(0.000000,128.000000) scale(0.100000,-0.100000)" fill="#666" stroke="none">
		<path d="M506 1185 c-259 -66 -439 -311 -423 -575 19 -297 260 -524 556 -522
		159 2 281 52 391 162 110 110 160 232 162 391 1 237 -144 444 -370 526 -86 32
		-230 40 -316 18z m53 -427 c85 -305 82 -297 92 -273 4 11 38 127 75 258 l67
		237 64 0 65 0 -7 -27 c-3 -16 -47 -163 -98 -328 l-92 -300 -85 0 -85 0 -97
		320 c-54 176 -98 323 -98 328 0 4 31 7 69 7 l69 0 61 -222z"/>
	</g>
</svg>
